<svg width="19" height="19" viewBox="0 0 19 19" fill="none" xmlns="http://www.w3.org/2000/svg">
<g clip-path="url(#clip0_144_1982)">
<path d="M18.4764 5.27384L16.7657 6.98454C16.5913 7.15895 16.3093 7.15895 16.1349 6.98454L12.0158 2.86549C11.8414 2.69108 11.8414 2.40906 12.0158 2.23465L13.7265 0.523948C14.4205 -0.169981 15.5486 -0.169981 16.2462 0.523948L18.4764 2.75417C19.1741 3.4481 19.1741 4.5762 18.4764 5.27384ZM10.5464 3.70415L0.801664 13.4488L0.0149646 17.9575C-0.09265 18.5661 0.438001 19.093 1.04658 18.9891L5.55526 18.1987L15.2999 8.45403C15.4744 8.27962 15.4744 7.9976 15.2999 7.82319L11.1809 3.70415C11.0028 3.52974 10.7208 3.52974 10.5464 3.70415ZM4.60528 12.6139C4.40119 12.4098 4.40119 12.0832 4.60528 11.8791L10.32 6.16444C10.5241 5.96034 10.8506 5.96034 11.0547 6.16444C11.2588 6.36854 11.2588 6.69509 11.0547 6.89919L5.34003 12.6139C5.13594 12.818 4.80938 12.818 4.60528 12.6139ZM3.26567 15.7347H5.04688V17.0818L2.65338 17.5011L1.4993 16.347L1.91863 13.9535H3.26567V15.7347Z" fill="white"/>
</g>
<defs>
<clipPath id="clip0_144_1982">
<rect width="18.5455" height="18.5455" fill="white" transform="scale(1.02449)"/>
</clipPath>
</defs>
</svg>
