<svg width="24" height="24" viewBox="0 0 24 24" fill="none" xmlns="http://www.w3.org/2000/svg">
<path d="M20.4854 3.51473C18.2349 1.26429 15.1827 0 12 0C8.81743 0 5.76518 1.26429 3.51473 3.51473C1.26429 5.76518 0 8.81743 0 12C0 15.1827 1.26429 18.2349 3.51473 20.4854C5.76518 22.7358 8.81743 24.0001 12 24.0001C15.1827 24.0001 18.2349 22.7358 20.4854 20.4854C22.7358 18.2349 24.0001 15.1827 24.0001 12C24.0001 8.81743 22.7358 5.76518 20.4854 3.51473ZM12 22.5C6.21033 22.5 1.50004 17.7898 1.50004 12C1.50004 6.21033 6.21033 1.50004 12 1.50004C17.7898 1.50004 22.5 6.21033 22.5 12C22.5 17.7898 17.7898 22.5 12 22.5ZM17.2798 9.56381C17.4204 9.70446 17.4994 9.89522 17.4994 10.0941C17.4994 10.293 17.4204 10.4838 17.2798 10.6245L12.5303 15.3738C12.3897 15.5145 12.1989 15.5935 12 15.5935C11.8011 15.5935 11.6104 15.5145 11.4697 15.3738L6.72037 10.6245C6.58113 10.4835 6.50331 10.2932 6.50392 10.0951C6.50452 9.89695 6.58349 9.70711 6.72358 9.56702C6.86368 9.42692 7.05351 9.34795 7.25164 9.34735C7.44976 9.34675 7.64007 9.42457 7.78101 9.56381L12 13.7828L16.2191 9.56381C16.3598 9.42316 16.5505 9.34415 16.7494 9.34415C16.9484 9.34415 17.1391 9.42316 17.2798 9.56381Z" fill="#0B0C0C"/>
</svg>
