<svg width="16" height="16" viewBox="0 0 16 16" fill="none" xmlns="http://www.w3.org/2000/svg">
<g clip-path="url(#clip0_119_2881)">
<path d="M15.4316 2.20716C15.0878 2.17581 14.7838 2.42909 14.7525 2.77284L14.6697 3.68125C13.2647 1.47481 10.8258 0 7.99991 0C4.95988 0 2.28078 1.73506 0.950846 4.33919C0.793846 4.64659 0.915784 5.02306 1.22319 5.18006C1.53066 5.33706 1.90706 5.21516 2.06406 4.90772C3.1896 2.70384 5.44981 1.25 7.99991 1.25C10.3242 1.25 12.4218 2.46034 13.6234 4.3565L12.7323 3.72003C12.4514 3.51944 12.061 3.5845 11.8604 3.86538C11.6598 4.14628 11.7249 4.53659 12.0058 4.73722L14.7081 6.66725C15.1042 6.94959 15.6505 6.69112 15.6938 6.21541L15.9973 2.88634C16.0286 2.54256 15.7754 2.2385 15.4316 2.20716Z" fill="#286FE5"/>
<path d="M14.7767 10.82C14.4692 10.663 14.0928 10.7849 13.9358 11.0923C12.8103 13.2962 10.5501 14.75 7.99997 14.75C5.67568 14.75 3.57812 13.5397 2.37643 11.6435L3.26759 12.28C3.5485 12.4806 3.93881 12.4155 4.13943 12.1347C4.34003 11.8538 4.27497 11.4634 3.99409 11.2628L1.29175 9.33279C0.900528 9.05329 0.349841 9.30401 0.306091 9.78464L0.00262212 13.1137C-0.0287216 13.4574 0.22456 13.7615 0.568278 13.7929C0.912466 13.8241 1.21612 13.5706 1.24743 13.2272L1.33025 12.3188C2.73518 14.5252 5.17406 16 7.99997 16C11.04 16 13.7191 14.265 15.049 11.6609C15.206 11.3534 15.0841 10.977 14.7767 10.82Z" fill="#286FE5"/>
</g>
<defs>
<clipPath id="clip0_119_2881">
<rect width="16" height="16" fill="white"/>
</clipPath>
</defs>
</svg>
