<svg width="54" height="54" viewBox="0 0 54 54" fill="none" xmlns="http://www.w3.org/2000/svg">
<circle cx="36" cy="32" r="17" fill="#286FE5" fill-opacity="0.24"/>
<path d="M27 6.75L27.559 5.63197L27 5.35246L26.441 5.63197L27 6.75ZM47.25 16.875H48.5V16.1025L47.809 15.757L47.25 16.875ZM47.25 37.125L47.809 38.243L48.5 37.8975V37.125H47.25ZM27 47.25L26.441 48.368L27 48.6475L27.559 48.368L27 47.25ZM6.75 37.125H5.5V37.8975L6.19098 38.243L6.75 37.125ZM6.75 16.875L6.19098 15.757L5.5 16.1025V16.875H6.75ZM37 29.25C37 29.9404 37.5596 30.5 38.25 30.5C38.9404 30.5 39.5 29.9404 39.5 29.25H37ZM38.25 21.375H39.5V20.6025L38.809 20.257L38.25 21.375ZM18.559 10.132C17.9415 9.82323 17.1907 10.0735 16.882 10.691C16.5732 11.3085 16.8235 12.0593 17.441 12.368L18.559 10.132ZM25.75 46.125C25.75 46.8154 26.3096 47.375 27 47.375C27.6904 47.375 28.25 46.8154 28.25 46.125H25.75ZM26.441 7.86803L46.691 17.993L47.809 15.757L27.559 5.63197L26.441 7.86803ZM46 16.875V37.125H48.5V16.875H46ZM46.691 36.007L26.441 46.132L27.559 48.368L47.809 38.243L46.691 36.007ZM27.559 46.132L7.30902 36.007L6.19098 38.243L26.441 48.368L27.559 46.132ZM8 37.125V16.875H5.5V37.125H8ZM7.30902 17.993L27.559 7.86803L26.441 5.63197L6.19098 15.757L7.30902 17.993ZM46.691 15.757L26.441 25.882L27.559 28.118L47.809 17.993L46.691 15.757ZM27.559 25.882L7.30902 15.757L6.19098 17.993L26.441 28.118L27.559 25.882ZM39.5 29.25V21.375H37V29.25H39.5ZM38.809 20.257L18.559 10.132L17.441 12.368L37.691 22.493L38.809 20.257ZM28.25 46.125V27H25.75V46.125H28.25Z" fill="#1B2834"/>
</svg>
