<svg width="24" height="24" viewBox="0 0 24 24" fill="none" xmlns="http://www.w3.org/2000/svg">
<path d="M3.51464 20.4853C5.76509 22.7357 8.81735 24 12 24C15.1826 24 18.2348 22.7357 20.4853 20.4853C22.7357 18.2348 24 15.1826 24 12C24 8.81735 22.7357 5.76509 20.4853 3.51464C18.2348 1.2642 15.1826 -8.66015e-05 12 -8.68798e-05C8.81735 -8.7158e-05 5.76509 1.2642 3.51465 3.51464C1.2642 5.76509 -8.45034e-05 8.81734 -8.47816e-05 12C-8.50598e-05 15.1826 1.2642 18.2348 3.51464 20.4853ZM12 1.49996C17.7897 1.49996 22.5 6.21024 22.5 12C22.5 17.7897 17.7897 22.5 12 22.5C6.21024 22.5 1.49996 17.7897 1.49996 12C1.49996 6.21024 6.21024 1.49995 12 1.49996ZM6.72024 14.4362C6.57959 14.2955 6.50058 14.1048 6.50058 13.9059C6.50058 13.707 6.57959 13.5162 6.72024 13.3755L11.4697 8.62617C11.6103 8.48554 11.8011 8.40654 12 8.40654C12.1989 8.40654 12.3896 8.48554 12.5303 8.62617L17.2796 13.3755C17.4189 13.5165 17.4967 13.7068 17.4961 13.9049C17.4955 14.103 17.4165 14.2929 17.2764 14.433C17.1363 14.5731 16.9465 14.652 16.7484 14.6526C16.5502 14.6532 16.3599 14.5754 16.219 14.4362L12 10.2172L7.78088 14.4362C7.64023 14.5768 7.44947 14.6558 7.25056 14.6558C7.05165 14.6558 6.86089 14.5768 6.72024 14.4362Z" fill="#0B0C0C"/>
</svg>
