<svg width="27" height="27" viewBox="0 0 27 27" fill="none" xmlns="http://www.w3.org/2000/svg">
<g clip-path="url(#clip0_37_810)">
<path d="M25.2053 13.8498C25.1517 13.741 25.1238 13.6214 25.1238 13.5001C25.1238 13.3788 25.1517 13.2592 25.2053 13.1504L26.2123 11.0903C26.7729 9.94332 26.3287 8.57619 25.2009 7.97781L23.1754 6.90309C23.0681 6.84659 22.9753 6.76619 22.904 6.66809C22.8327 6.56999 22.7849 6.45681 22.7643 6.33731L22.3682 4.07876C22.1476 2.82127 20.9844 1.97626 19.7205 2.15508L17.4501 2.47623C17.3301 2.49358 17.2077 2.48311 17.0924 2.44563C16.9771 2.40815 16.8719 2.34466 16.785 2.26007L15.137 0.665814C14.2194 -0.221912 12.7819 -0.221964 11.8643 0.665814L10.2162 2.26023C10.1293 2.3448 10.0242 2.40827 9.90885 2.44575C9.79352 2.48323 9.67113 2.49371 9.55111 2.47639L7.28075 2.15523C6.01645 1.97631 4.85367 2.82142 4.63308 4.07892L4.23694 6.33736C4.21635 6.45687 4.16858 6.57004 4.0973 6.66815C4.02603 6.76626 3.93317 6.84668 3.82588 6.9032L1.80036 7.97792C0.672593 8.57624 0.228362 9.94348 0.78903 11.0905L1.79599 13.1505C1.84959 13.2593 1.87746 13.3789 1.87746 13.5002C1.87746 13.6215 1.84959 13.7411 1.79599 13.8499L0.788977 15.9099C0.228309 17.0569 0.672541 18.4241 1.80031 19.0224L3.82583 20.0972C3.93313 20.1537 4.026 20.2341 4.09729 20.3322C4.16857 20.4303 4.21635 20.5434 4.23694 20.6629L4.63308 22.9215C4.83389 24.0662 5.81548 24.8691 6.94362 24.869C7.05473 24.869 7.16748 24.8612 7.2808 24.8451L9.55116 24.524C9.67118 24.5066 9.79359 24.5171 9.90892 24.5545C10.0243 24.592 10.1294 24.6555 10.2163 24.7401L11.8643 26.3344C12.3232 26.7783 12.9118 27.0002 13.5006 27.0002C14.0893 27.0001 14.6783 26.7782 15.137 26.3344L16.785 24.7401C16.9628 24.5682 17.2052 24.4896 17.4501 24.524L19.7205 24.8451C20.985 25.024 22.1476 24.1789 22.3682 22.9214L22.7644 20.663C22.785 20.5435 22.8327 20.4303 22.904 20.3322C22.9753 20.2341 23.0681 20.1537 23.1754 20.0972L25.2009 19.0224C26.3287 18.4241 26.7729 17.0569 26.2123 15.9099L25.2053 13.8498ZM10.3861 6.49251C11.9603 6.49251 13.2411 7.77326 13.2411 9.34748C13.2411 10.9217 11.9603 12.2024 10.3861 12.2024C8.81188 12.2024 7.53113 10.9217 7.53113 9.34748C7.53113 7.77326 8.81188 6.49251 10.3861 6.49251ZM8.9125 19.1893C8.76047 19.3413 8.56119 19.4174 8.36196 19.4174C8.16273 19.4174 7.96339 19.3414 7.81142 19.1893C7.50735 18.8852 7.50735 18.3922 7.81142 18.0881L18.0887 7.81086C18.3927 7.50679 18.8858 7.50679 19.1898 7.81086C19.4939 8.11492 19.4939 8.60793 19.1898 8.912L8.9125 19.1893ZM16.615 20.5077C15.0408 20.5077 13.7601 19.227 13.7601 17.6528C13.7601 16.0786 15.0408 14.7978 16.615 14.7978C18.1893 14.7978 19.47 16.0786 19.47 17.6528C19.47 19.227 18.1893 20.5077 16.615 20.5077Z" fill="#1B2834"/>
<path d="M16.6145 16.3552C15.899 16.3552 15.3168 16.9373 15.3168 17.6528C15.3168 18.3684 15.8989 18.9505 16.6145 18.9505C17.3301 18.9505 17.9122 18.3684 17.9122 17.6528C17.9122 16.9373 17.3301 16.3552 16.6145 16.3552ZM10.3856 8.0498C9.67002 8.0498 9.08789 8.63194 9.08789 9.34748C9.08789 10.063 9.67002 10.6452 10.3856 10.6452C11.1011 10.6452 11.6833 10.0631 11.6833 9.34748C11.6833 8.63199 11.1011 8.0498 10.3856 8.0498Z" fill="#1B2834"/>
</g>
<defs>
<clipPath id="clip0_37_810">
<rect width="27" height="27" fill="white"/>
</clipPath>
</defs>
</svg>
